<svg xmlns="http://www.w3.org/2000/svg" xmlns:xlink="http://www.w3.org/1999/xlink" version="1.1" data-diagram-type="DESCRIPTION" style="width:703px;height:720px;background:#FFFFFF;" width="703px" height="720px" viewBox="0 0 703 720" zoomAndPan="magnify" preserveAspectRatio="none" contentStyleType="text/css"><?plantuml 1.2026.8?><defs/><g font-family="sans-serif" lengthAdjust="spacing"><!--cluster ABYSS · lokales Desktopspiel--><g class="cluster" data-qualified-name="ABYSS . lokales Desktopspiel" id="ent0002" data-source-line="19"><rect x="112.53" y="7" width="278.25" height="699" fill="#F5F8F7" style="stroke:#6E8B91;stroke-width:1;" rx="4" ry="4"/><text x="144.952" y="23.07" fill="#000" font-size="15" textLength="213.406" font-weight="700" font-family="Arial">ABYSS · lokales Desktopspiel</text></g><!--entity Start--><g class="entity" data-qualified-name="ABYSS . lokales Desktopspiel.Start" id="ent0003" data-source-line="20"><ellipse cx="251.656" cy="664.998" rx="92.106" ry="24.808" fill="#F1F1F1" style="stroke:#181818;stroke-width:0.5;"/><text x="229.984" y="657.593" fill="#000" font-size="15" textLength="43.345" font-family="Arial">UC-01</text><text x="181.179" y="674.842" fill="#000" font-size="15" textLength="140.955" font-family="Arial">Tauchgang beginnen</text></g><!--entity Progress--><g class="entity" data-qualified-name="ABYSS . lokales Desktopspiel.Progress" id="ent0004" data-source-line="21"><ellipse cx="251.664" cy="578.005" rx="123.124" ry="27.025" fill="#F1F1F1" style="stroke:#181818;stroke-width:0.5;"/><text x="229.992" y="568.123" fill="#000" font-size="15" textLength="43.345" font-family="Arial">UC-02</text><text x="144.529" y="585.371" fill="#000" font-size="15" textLength="214.27" font-family="Arial">Zum nächsten Raum vordringen</text></g><!--entity Upgrade--><g class="entity" data-qualified-name="ABYSS . lokales Desktopspiel.Upgrade" id="ent0005" data-source-line="22"><ellipse cx="251.656" cy="490.997" rx="100.326" ry="24.767" fill="#F1F1F1" style="stroke:#181818;stroke-width:0.5;"/><text x="229.984" y="483.525" fill="#000" font-size="15" textLength="43.345" font-family="Arial">UC-03</text><text x="174.532" y="500.774" fill="#000" font-size="15" textLength="154.248" font-family="Arial">Ausrüstung verbessern</text></g><!--entity Resume--><g class="entity" data-qualified-name="ABYSS . lokales Desktopspiel.Resume" id="ent0006" data-source-line="23"><ellipse cx="251.663" cy="407.002" rx="109.623" ry="24.732" fill="#F1F1F1" style="stroke:#181818;stroke-width:0.5;"/><text x="229.991" y="399.472" fill="#000" font-size="15" textLength="43.345" font-family="Arial">UC-04</text><text x="167.035" y="416.721" fill="#000" font-size="15" textLength="169.255" font-family="Arial">Unterbrechen / fortsetzen</text></g><!--entity Win--><g class="entity" data-qualified-name="ABYSS . lokales Desktopspiel.Win" id="ent0007" data-source-line="24"><ellipse cx="251.664" cy="323.002" rx="106.504" ry="24.742" fill="#F1F1F1" style="stroke:#181818;stroke-width:0.5;"/><text x="229.992" y="315.49" fill="#000" font-size="15" textLength="43.345" font-family="Arial">UC-05</text><text x="169.552" y="332.739" fill="#000" font-size="15" textLength="164.224" font-family="Arial">Brücke / nächster Zyklus</text></g><!--entity Retry--><g class="entity" data-qualified-name="ABYSS . lokales Desktopspiel.Retry" id="ent0008" data-source-line="25"><ellipse cx="251.656" cy="237.997" rx="77.696" ry="24.917" fill="#F1F1F1" style="stroke:#181818;stroke-width:0.5;"/><text x="229.983" y="230.771" fill="#000" font-size="15" textLength="43.345" font-family="Arial">UC-06</text><text x="192.872" y="248.02" fill="#000" font-size="15" textLength="117.568" font-family="Arial">Erneut versuchen</text></g><!--entity Blueprint--><g class="entity" data-qualified-name="ABYSS . lokales Desktopspiel.Blueprint" id="ent0009" data-source-line="26"><ellipse cx="251.664" cy="153.003" rx="96.724" ry="24.783" fill="#F1F1F1" style="stroke:#181818;stroke-width:0.5;"/><text x="229.991" y="145.559" fill="#000" font-size="15" textLength="43.345" font-family="Arial">UC-07</text><text x="177.451" y="162.807" fill="#000" font-size="15" textLength="148.425" font-family="Arial">Baupläne / Startmodul</text></g><!--entity Options--><g class="entity" data-qualified-name="ABYSS . lokales Desktopspiel.Options" id="ent0010" data-source-line="27"><ellipse cx="251.656" cy="68.004" rx="69.006" ry="25.024" fill="#F1F1F1" style="stroke:#181818;stroke-width:0.5;"/><text x="229.983" y="60.95" fill="#000" font-size="15" textLength="43.345" font-family="Arial">UC-08</text><text x="199.961" y="78.198" fill="#000" font-size="15" textLength="103.389" font-family="Arial">Optionen / Hilfe</text></g><!--entity Player--><g class="entity" data-qualified-name="Player" id="ent0001" data-source-line="18"><ellipse cx="37.267" cy="334.88" rx="8" ry="8" fill="#F1F1F1" style="stroke:#181818;stroke-width:0.5;"/><path d="M37.267,342.88 L37.267,369.88 M24.267,350.88 L50.267,350.88 M37.267,369.88 L24.267,384.88 M37.267,369.88 L50.267,384.88" style="stroke:#181818;stroke-width:0.5;" fill="none"/><text x="6" y="400.45" fill="#000" font-size="15" textLength="62.534" font-family="Arial">Spieler/in</text></g><g class="entity" data-qualified-name="GMN19" id="ent0020" data-source-line="38"><path d="M434.78,380.13 L434.78,403 L361.66,407 L434.78,411 L434.78,433.876 A4,4 0 0 0 438.78,437.876 L684.426,437.876 A4,4 0 0 0 688.426,433.876 L688.426,386.13 L678.426,376.13 L438.78,376.13 A4,4 0 0 0 434.78,380.13" style="stroke:#D8AA64;stroke-width:0.5;" fill="#FFF2DA"/><path d="M678.426,376.13 L678.426,384.13 A2,2 0 0 0 680.426,386.13 L688.426,386.13 L678.426,376.13" style="stroke:#D8AA64;stroke-width:0.5;" fill="#FFF2DA"/><text x="440.78" y="395.2" fill="#000" font-size="15" textLength="195.125" font-family="Arial">Lokale Save-Dateien sind ein</text><text x="440.78" y="412.448" fill="#000" font-size="15" textLength="195.117" font-family="Arial">technischer Speicheradapter.</text><text x="440.78" y="429.697" fill="#000" font-size="15" textLength="232.646" font-family="Arial">Keine Online-Akteure oder Konten.</text></g><!--link Player to Start--><g class="link" data-entity-1="ent0001" data-entity-2="ent0003" id="lnk11" data-source-line="29" data-link-type="dependency"><path d="M43.51,404.11 C52.87,468.29 74.36,591.95 104.53,623 C120.72,639.66 138.231,648.498 160.561,654.668" style="stroke:#355863;stroke-width:1;" fill="none" id="Player-to-Start"/><polygon points="165.38,656,157.77,649.748,160.561,654.668,155.64,657.459,165.38,656" fill="#355863" style="stroke:#355863;stroke-width:1;stroke-linejoin:miter;stroke-miterlimit:10;"/></g><!--link Player to Progress--><g class="link" data-entity-1="ent0001" data-entity-2="ent0004" id="lnk12" data-source-line="30" data-link-type="dependency"><path d="M43.7,403.78 C51.04,441.81 67.72,498.92 104.53,533 C118.27,545.71 130.828,553.112 148.618,559.662" style="stroke:#355863;stroke-width:1;" fill="none" id="Player-to-Progress"/><polygon points="153.31,561.39,146.246,554.527,148.618,559.662,143.482,562.034,153.31,561.39" fill="#355863" style="stroke:#355863;stroke-width:1;stroke-linejoin:miter;stroke-miterlimit:10;"/></g><!--link Player to Upgrade--><g class="link" data-entity-1="ent0001" data-entity-2="ent0005" id="lnk13" data-source-line="31" data-link-type="dependency"><path d="M61.19,403.82 C72.42,419.87 87.26,437.4 104.53,449 C123.49,461.73 141.511,469.281 163.431,475.521" style="stroke:#355863;stroke-width:1;" fill="none" id="Player-to-Upgrade"/><polygon points="168.24,476.89,160.679,470.579,163.431,475.521,158.489,478.273,168.24,476.89" fill="#355863" style="stroke:#355863;stroke-width:1;stroke-linejoin:miter;stroke-miterlimit:10;"/></g><!--link Player to Resume--><g class="link" data-entity-1="ent0001" data-entity-2="ent0006" id="lnk14" data-source-line="32" data-link-type="dependency"><path d="M68.7,371.02 C94.62,376.14 128.205,382.791 163.115,389.691" style="stroke:#355863;stroke-width:1;" fill="none" id="Player-to-Resume"/><polygon points="168.02,390.66,159.966,384.991,163.115,389.691,158.415,392.839,168.02,390.66" fill="#355863" style="stroke:#355863;stroke-width:1;stroke-linejoin:miter;stroke-miterlimit:10;"/></g><!--link Player to Win--><g class="link" data-entity-1="ent0001" data-entity-2="ent0007" id="lnk15" data-source-line="33" data-link-type="dependency"><path d="M68.7,358.98 C94.96,353.79 129.235,347.009 164.505,340.039" style="stroke:#355863;stroke-width:1;" fill="none" id="Player-to-Win"/><polygon points="169.41,339.07,159.805,336.891,164.505,340.039,161.356,344.739,169.41,339.07" fill="#355863" style="stroke:#355863;stroke-width:1;stroke-linejoin:miter;stroke-miterlimit:10;"/></g><!--link Player to Retry--><g class="link" data-entity-1="ent0001" data-entity-2="ent0008" id="lnk16" data-source-line="34" data-link-type="dependency"><path d="M61.22,326.23 C72.46,310.19 87.3,292.65 104.53,281 C127.43,265.52 151.128,256.719 176.898,250.299" style="stroke:#355863;stroke-width:1;" fill="none" id="Player-to-Retry"/><polygon points="181.75,249.09,172.05,247.384,176.898,250.299,173.984,255.147,181.75,249.09" fill="#355863" style="stroke:#355863;stroke-width:1;stroke-linejoin:miter;stroke-miterlimit:10;"/></g><!--link Player to Blueprint--><g class="link" data-entity-1="ent0001" data-entity-2="ent0009" id="lnk17" data-source-line="35" data-link-type="dependency"><path d="M43.55,325.9 C50.76,287.56 67.35,230.06 104.53,196 C121.3,180.64 138.5,172.14 160.31,165.78" style="stroke:#355863;stroke-width:1;" fill="none" id="Player-to-Blueprint"/><polygon points="165.11,164.38,155.35,163.059,160.31,165.78,157.59,170.74,165.11,164.38" fill="#355863" style="stroke:#355863;stroke-width:1;stroke-linejoin:miter;stroke-miterlimit:10;"/></g><!--link Player to Options--><g class="link" data-entity-1="ent0001" data-entity-2="ent0010" id="lnk18" data-source-line="36" data-link-type="dependency"><path d="M43.69,326 C53.24,262.7 74.91,141.55 104.53,111 C125.24,89.64 151.064,79.716 179.004,74.216" style="stroke:#355863;stroke-width:1;" fill="none" id="Player-to-Options"/><polygon points="183.91,73.25,174.307,71.064,179.004,74.216,175.852,78.913,183.91,73.25" fill="#355863" style="stroke:#355863;stroke-width:1;stroke-linejoin:miter;stroke-miterlimit:10;"/></g><?plantuml-src XLJRJjj047ttLupIvq0XvC9B9OSGLG8LX8kg8hzixB6pydhMtGieLFqR_g4lVIe_rh7ZKEEcRQJSPizbvkokRI6f4aQKi199aHljAJtJIXjuisnUWNr1f9W9hznIa_iWIeJGIA7shqVo4U5et5cqQv7g1qavP49PxAmqdeasX0PcdNfeZ7veUncDnxF9gBEOA67jlD_oURWSBO__W6cJelcR4dywcSXAaFk_NXVyJrMBNpnIWfSoupVXA_GqF9sUddNGf1tEz-H_l0ZxgAxEOXQ6avDNxIM5oFT8ZPUpvNGFiAisEP_DJu-2jKmHiApS1aeiLsXie31pu3GOcQyTfD9WugIcG2IEYOEeagZG74eQWB1mhSG6JL231EKAOH3EFqSH_FmEIXT2eOK5siBfojR40NmDm5jCX6NexTdmxL5C7uLFrZdJOOMv9CAjTEGu_nxwEAOxp-4yFoLhwv3WHl3VUvxCy6bhYTT6vmQjxN57CONUckSVrddskaUpOX2QBUcsoer8iSSvYUcM72Dvm3NR7KAcZRFe7bkl6xI-xBF6CStP9ocG2RjU3Tnj2kLjG_iagSUPn7JEjyAxkZ7hQxVMm9bD3pjbVU4hzVn4jKCJLAbJhnh6N7ciE8v-ThEOhgfwAvivtakLOOFV5ctmBTXk9Wo7xzhmEuMNK3krNMQTKfj7frAF-WfGpzCf_6wtKzprLD-2zYJgR2T-sHmiYCGz3XV2eUI1hAGKaAqSRnH9o_aPY2gKzG-HYeetu22uO0J25Id-6eQ5GsyGDDyAkE3d6D91W2nJcmQ_0000?></g></svg>