<svg xmlns="http://www.w3.org/2000/svg" xmlns:xlink="http://www.w3.org/1999/xlink" version="1.1" data-diagram-type="SEQUENCE" style="width:960px;height:608px;background:#FFFFFF;" width="960px" height="608px" viewBox="0 0 960 608" zoomAndPan="magnify" preserveAspectRatio="none" contentStyleType="text/css"><?plantuml 1.2026.8?><defs/><g font-family="sans-serif" lengthAdjust="spacing"><rect x="278.666" y="179.243" width="399.364" height="106.994" fill="#F5F8F7" style="stroke:#F5F8F7;stroke-width:1;" rx="4" ry="4"/><rect x="278.666" y="179.243" width="399.364" height="106.994" fill="none" style="stroke:#6E8B91;stroke-width:1.5;" rx="4" ry="4"/><g><title>GameWindow</title><rect x="60.598" y="42.249" width="8" height="522.977" fill="#000" fill-opacity="0"/><line x1="64.098" y1="42.249" x2="64.098" y2="565.225" style="stroke:#7A979C;stroke-width:0.5;stroke-dasharray:5,5;"/></g><g><title>InputController</title><rect x="183.79" y="42.249" width="8" height="522.977" fill="#000" fill-opacity="0"/><line x1="187.29" y1="42.249" x2="187.29" y2="565.225" style="stroke:#7A979C;stroke-width:0.5;stroke-dasharray:5,5;"/></g><g><title>GameRun</title><rect x="291.166" y="42.249" width="8" height="522.977" fill="#000" fill-opacity="0"/><line x1="294.666" y1="42.249" x2="294.666" y2="565.225" style="stroke:#7A979C;stroke-width:0.5;stroke-dasharray:5,5;"/></g><g><title>Player</title><rect x="556.979" y="42.249" width="8" height="522.977" fill="#000" fill-opacity="0"/><line x1="560.479" y1="42.249" x2="560.479" y2="565.225" style="stroke:#7A979C;stroke-width:0.5;stroke-dasharray:5,5;"/></g><g><title>Enemy</title><rect x="625.58" y="42.249" width="8" height="522.977" fill="#000" fill-opacity="0"/><line x1="629.08" y1="42.249" x2="629.08" y2="565.225" style="stroke:#7A979C;stroke-width:0.5;stroke-dasharray:5,5;"/></g><g><title>GameRenderer</title><rect x="742.22" y="42.249" width="8" height="522.977" fill="#000" fill-opacity="0"/><line x1="745.72" y1="42.249" x2="745.72" y2="565.225" style="stroke:#7A979C;stroke-width:0.5;stroke-dasharray:5,5;"/></g><g><title>AudioSystem</title><rect x="862.098" y="42.249" width="8" height="522.977" fill="#000" fill-opacity="0"/><line x1="865.598" y1="42.249" x2="865.598" y2="565.225" style="stroke:#7A979C;stroke-width:0.5;stroke-dasharray:5,5;"/></g><rect x="10" y="10" width="108.197" height="31.249" fill="#EAF3F2" style="stroke:#355863;stroke-width:0.5;" rx="4" ry="4"/><text x="17" y="31.07" fill="#000" font-size="15" textLength="94.197" font-family="Arial">GameWindow</text><rect x="131.097" y="10" width="112.386" height="31.249" fill="#EAF3F2" style="stroke:#355863;stroke-width:0.5;" rx="4" ry="4"/><text x="138.097" y="31.07" fill="#000" font-size="15" textLength="98.386" font-family="Arial">InputController</text><rect x="253.483" y="10" width="82.364" height="31.249" fill="#EAF3F2" style="stroke:#355863;stroke-width:0.5;" rx="4" ry="4"/><text x="260.483" y="31.07" fill="#000" font-size="15" textLength="68.364" font-family="Arial">GameRun</text><rect x="532.221" y="10" width="56.517" height="31.249" fill="#EAF3F2" style="stroke:#355863;stroke-width:0.5;" rx="4" ry="4"/><text x="539.221" y="31.07" fill="#000" font-size="15" textLength="42.517" font-family="Arial">Player</text><rect x="598.738" y="10" width="60.685" height="31.249" fill="#EAF3F2" style="stroke:#355863;stroke-width:0.5;" rx="4" ry="4"/><text x="605.738" y="31.07" fill="#000" font-size="15" textLength="46.685" font-family="Arial">Enemy</text><rect x="687.03" y="10" width="117.381" height="31.249" fill="#EAF3F2" style="stroke:#355863;stroke-width:0.5;" rx="4" ry="4"/><text x="694.03" y="31.07" fill="#000" font-size="15" textLength="103.381" font-family="Arial">GameRenderer</text><rect x="814.411" y="10" width="102.374" height="31.249" fill="#EAF3F2" style="stroke:#355863;stroke-width:0.5;" rx="4" ry="4"/><text x="821.411" y="31.07" fill="#000" font-size="15" textLength="88.374" font-family="Arial">AudioSystem</text><rect x="10" y="565.225" width="108.197" height="31.249" fill="#EAF3F2" style="stroke:#355863;stroke-width:0.5;" rx="4" ry="4"/><text x="17" y="586.295" fill="#000" font-size="15" textLength="94.197" font-family="Arial">GameWindow</text><rect x="131.097" y="565.225" width="112.386" height="31.249" fill="#EAF3F2" style="stroke:#355863;stroke-width:0.5;" rx="4" ry="4"/><text x="138.097" y="586.295" fill="#000" font-size="15" textLength="98.386" font-family="Arial">InputController</text><rect x="253.483" y="565.225" width="82.364" height="31.249" fill="#EAF3F2" style="stroke:#355863;stroke-width:0.5;" rx="4" ry="4"/><text x="260.483" y="586.295" fill="#000" font-size="15" textLength="68.364" font-family="Arial">GameRun</text><rect x="532.221" y="565.225" width="56.517" height="31.249" fill="#EAF3F2" style="stroke:#355863;stroke-width:0.5;" rx="4" ry="4"/><text x="539.221" y="586.295" fill="#000" font-size="15" textLength="42.517" font-family="Arial">Player</text><rect x="598.738" y="565.225" width="60.685" height="31.249" fill="#EAF3F2" style="stroke:#355863;stroke-width:0.5;" rx="4" ry="4"/><text x="605.738" y="586.295" fill="#000" font-size="15" textLength="46.685" font-family="Arial">Enemy</text><rect x="687.03" y="565.225" width="117.381" height="31.249" fill="#EAF3F2" style="stroke:#355863;stroke-width:0.5;" rx="4" ry="4"/><text x="694.03" y="586.295" fill="#000" font-size="15" textLength="103.381" font-family="Arial">GameRenderer</text><rect x="814.411" y="565.225" width="102.374" height="31.249" fill="#EAF3F2" style="stroke:#355863;stroke-width:0.5;" rx="4" ry="4"/><text x="821.411" y="586.295" fill="#000" font-size="15" textLength="88.374" font-family="Arial">AudioSystem</text><polygon points="175.29,69.497,185.29,73.497,175.29,77.497,179.29,73.497" fill="#355863" style="stroke:#355863;stroke-width:1;stroke-linejoin:miter;stroke-miterlimit:10;"/><line x1="64.098" y1="73.497" x2="181.29" y2="73.497" style="stroke:#355863;stroke-width:1;"/><text x="71.098" y="68.318" fill="#000" font-size="15" textLength="99.192" font-family="Arial">frame(playerX)</text><polygon points="75.098,100.746,65.098,104.746,75.098,108.746,71.098,104.746" fill="#355863" style="stroke:#355863;stroke-width:1;stroke-linejoin:miter;stroke-miterlimit:10;"/><line x1="69.098" y1="104.746" x2="186.29" y2="104.746" style="stroke:#355863;stroke-width:1;stroke-dasharray:2,2;"/><text x="81.098" y="99.567" fill="#000" font-size="15" textLength="76.699" font-family="Arial">InputFrame</text><polygon points="282.666,131.994,292.666,135.994,282.666,139.994,286.666,135.994" fill="#355863" style="stroke:#355863;stroke-width:1;stroke-linejoin:miter;stroke-miterlimit:10;"/><line x1="64.098" y1="135.994" x2="288.666" y2="135.994" style="stroke:#355863;stroke-width:1;"/><text x="71.098" y="130.815" fill="#000" font-size="15" textLength="134.268" font-family="Arial">update(1/120, input)</text><polygon points="548.479,163.243,558.479,167.243,548.479,171.243,552.479,167.243" fill="#355863" style="stroke:#355863;stroke-width:1;stroke-linejoin:miter;stroke-miterlimit:10;"/><line x1="294.666" y1="167.243" x2="554.479" y2="167.243" style="stroke:#355863;stroke-width:1;"/><text x="301.666" y="162.064" fill="#000" font-size="15" textLength="157.603" font-family="Arial">Bewegung / Cooldowns</text><path d="M282.666,179.243 L341.17,179.243 L341.17,188.491 L331.17,198.491 L278.666,198.491 L278.666,183.243 A4,4 0 0 1 282.666,179.243" style="stroke:#000;stroke-width:1.5;" fill="#EEE"/><rect x="278.666" y="179.243" width="399.364" height="106.994" fill="none" style="stroke:#6E8B91;stroke-width:1.5;" rx="4" ry="4"/><text x="293.666" y="194.313" fill="#000" font-size="15" textLength="17.505" font-weight="700" font-family="Arial">alt</text><text x="356.17" y="195.313" fill="#000" font-size="15" textLength="305.859" font-weight="700" font-family="Arial">[Angriff zulässig und Treffer in Reichweite]</text><polygon points="617.08,229.988,627.08,233.988,617.08,237.988,621.08,233.988" fill="#355863" style="stroke:#355863;stroke-width:1;stroke-linejoin:miter;stroke-miterlimit:10;"/><line x1="294.666" y1="233.988" x2="623.08" y2="233.988" style="stroke:#355863;stroke-width:1;"/><text x="301.666" y="228.81" fill="#000" font-size="15" textLength="132.612" font-family="Arial">Schaden anwenden</text><line x1="294.666" y1="265.237" x2="336.666" y2="265.237" style="stroke:#355863;stroke-width:1;"/><line x1="336.666" y1="265.237" x2="336.666" y2="278.237" style="stroke:#355863;stroke-width:1;"/><line x1="295.666" y1="278.237" x2="336.666" y2="278.237" style="stroke:#355863;stroke-width:1;"/><polygon points="305.666,274.237,295.666,278.237,305.666,282.237,301.666,278.237" fill="#355863" style="stroke:#355863;stroke-width:1;stroke-linejoin:miter;stroke-miterlimit:10;"/><text x="301.666" y="260.058" fill="#000" font-size="15" textLength="210.857" font-family="Arial">HIT / ENEMY_DOWN sammeln</text><line x1="294.666" y1="340.734" x2="336.666" y2="340.734" style="stroke:#355863;stroke-width:1;"/><line x1="336.666" y1="340.734" x2="336.666" y2="353.734" style="stroke:#355863;stroke-width:1;"/><line x1="295.666" y1="353.734" x2="336.666" y2="353.734" style="stroke:#355863;stroke-width:1;"/><polygon points="305.666,349.734,295.666,353.734,305.666,357.734,301.666,353.734" fill="#355863" style="stroke:#355863;stroke-width:1;stroke-linejoin:miter;stroke-miterlimit:10;"/><text x="301.666" y="318.307" fill="#000" font-size="15" textLength="251.814" font-family="Arial">Gegnerzustände, Projektile, Gefahren</text><text x="301.666" y="335.555" fill="#000" font-size="15" textLength="224.29" font-family="Arial">und Raumabschluss aktualisieren</text><polygon points="282.666,380.982,292.666,384.982,282.666,388.982,286.666,384.982" fill="#355863" style="stroke:#355863;stroke-width:1;stroke-linejoin:miter;stroke-miterlimit:10;"/><line x1="64.098" y1="384.982" x2="288.666" y2="384.982" style="stroke:#355863;stroke-width:1;"/><text x="71.098" y="379.804" fill="#000" font-size="15" textLength="89.202" font-family="Arial">drainEvents()</text><polygon points="75.098,412.231,65.098,416.231,75.098,420.231,71.098,416.231" fill="#355863" style="stroke:#355863;stroke-width:1;stroke-linejoin:miter;stroke-miterlimit:10;"/><line x1="69.098" y1="416.231" x2="293.666" y2="416.231" style="stroke:#355863;stroke-width:1;stroke-dasharray:2,2;"/><text x="81.098" y="411.052" fill="#000" font-size="15" textLength="120.066" font-family="Arial">List&lt;GameEvent></text><polygon points="733.72,443.479,743.72,447.479,733.72,451.479,737.72,447.479" fill="#355863" style="stroke:#355863;stroke-width:1;stroke-linejoin:miter;stroke-miterlimit:10;"/><line x1="64.098" y1="447.479" x2="739.72" y2="447.479" style="stroke:#355863;stroke-width:1;"/><text x="71.098" y="442.301" fill="#000" font-size="15" textLength="143.408" font-family="Arial">event(event, settings)</text><polygon points="853.598,474.728,863.598,478.728,853.598,482.728,857.598,478.728" fill="#355863" style="stroke:#355863;stroke-width:1;stroke-linejoin:miter;stroke-miterlimit:10;"/><line x1="64.098" y1="478.728" x2="859.598" y2="478.728" style="stroke:#355863;stroke-width:1;"/><text x="71.098" y="473.549" fill="#000" font-size="15" textLength="83.379" font-family="Arial">event(event)</text><polygon points="733.72,505.977,743.72,509.977,733.72,513.977,737.72,509.977" fill="#355863" style="stroke:#355863;stroke-width:1;stroke-linejoin:miter;stroke-miterlimit:10;"/><line x1="64.098" y1="509.977" x2="739.72" y2="509.977" style="stroke:#355863;stroke-width:1;"/><text x="71.098" y="504.798" fill="#000" font-size="15" textLength="155.896" font-family="Arial">render(run, settings, ...)</text><path d="M666.747,526.977 L666.747,545.977 A4,4 0 0 0 670.747,549.977 L939.747,549.977 A4,4 0 0 0 943.747,545.977 L943.747,532.977 L933.747,522.977 L670.747,522.977 A4,4 0 0 0 666.747,526.977" style="stroke:#D8AA64;stroke-width:0.5;" fill="#FFF2DA"/><path d="M933.747,522.977 L933.747,530.977 A2,2 0 0 0 935.747,532.977 L943.747,532.977 L933.747,522.977" style="stroke:#D8AA64;stroke-width:0.5;" fill="#FFF2DA"/><text x="672.747" y="542.046" fill="#000" font-size="15" textLength="256.824" font-family="Arial">Feedback verändert keine Spielregeln.</text><?plantuml-src XPHlRzem4CRVvrESj3SWKJhQGIcQAWLAEgIkgqghRjAaoKqkmSEnC_yfef-dtwHVRES4kgImBHB1yVty-FnSBcR9PS4qo-61nSjCAoUJYH9Amxkel0BpIYIOCYTifAIzOZb2g3aJ--Dp_eJGwzU2Pi4IjU8oWvG9WxL8kMUij4GDmzfygBLQRN8vxlU7W-DQC1RCcF7RbATXT1mTxM1A9wZ_faHtosDUC6d_hrU7_wbgy9T36UCbJ-adiK6VXASdfvCQBPN5yHx_Zyx3jrHTvtmOXeCFZVJY9SlsIFMZONIo1woh3QR3yMalMF040VF2hY77_06r2MgdXWkg_3sNL4jW1kvcZU1C5ivEgFvQ2K7b9AASsb6uST87wQyHkXPiZRenDPMOhtVNewJ4gnssumOKkeIh-TfOp3rJFWPtCpWugpA24QHa1BQASiklxQ2QFY20i555HHxPBFCfZy0L2RFOwXtsZjvtW7ke7VWG4LNs18rnXPcZL_qG9ae9yagQW0dAIcQQfoayEV7oR0pFW6e4jnhJb1PoIMVXyMA5t6806zNI01ATnzH1IBR9bJ-mV0Mgn3xDRccxwTNqyxSVvr_khy2mF4SX0uA31dc16RNQapFsvPc4Ed2jrKzSMYveV44zlD0elqkVsGrpENimyK8uOu0jhME26qvkouOhYMPSJXzHMjFQsB7ryP8R-z6Nh0oVRPTjwpS2zFEjyjwXjh6MlX6clU7AkZMXzgw4BeSjxUGVXGvqkzrsu7i6r2DXMxvJlGiHOk8_UK2nqWTjOOdKgJ0lE0gD6PdNzUwLVHVy1W00?></g></svg>