<svg xmlns="http://www.w3.org/2000/svg" xmlns:xlink="http://www.w3.org/1999/xlink" version="1.1" data-diagram-type="SEQUENCE" style="width:880px;height:361px;background:#FFFFFF;" width="880px" height="361px" viewBox="0 0 880 361" zoomAndPan="magnify" preserveAspectRatio="none" contentStyleType="text/css"><?plantuml 1.2026.8?><defs/><g font-family="sans-serif" lengthAdjust="spacing"><g class="title" data-source-line="19"><text x="343.735" y="28.132" fill="#000" font-size="14" textLength="190.572" font-weight="700" font-family="Arial">Sequenz: Fortsetzen (UC-05)</text></g><g><title>.GameWindow</title><rect x="59.403" y="78.197" width="8" height="241.69" fill="#000" fill-opacity="0"/><line x1="62.903" y1="78.197" x2="62.903" y2="319.888" style="stroke:#7A979C;stroke-width:0.5;stroke-dasharray:5,5;"/></g><g><title>.GameService</title><rect x="173.655" y="78.197" width="8" height="241.69" fill="#000" fill-opacity="0"/><line x1="177.155" y1="78.197" x2="177.155" y2="319.888" style="stroke:#7A979C;stroke-width:0.5;stroke-dasharray:5,5;"/></g><g><title>.FileGameRepository</title><rect x="444.295" y="78.197" width="8" height="241.69" fill="#000" fill-opacity="0"/><line x1="447.795" y1="78.197" x2="447.795" y2="319.888" style="stroke:#7A979C;stroke-width:0.5;stroke-dasharray:5,5;"/></g><g><title>GameRun</title><rect x="565.943" y="78.197" width="8" height="241.69" fill="#000" fill-opacity="0"/><line x1="569.443" y1="78.197" x2="569.443" y2="319.888" style="stroke:#7A979C;stroke-width:0.5;stroke-dasharray:5,5;"/></g><rect x="10" y="47.099" width="105.807" height="30.099" fill="#EAF3F2" style="stroke:#355863;stroke-width:0.5;" rx="4" ry="4"/><text x="17" y="67.23" fill="#000" font-size="14" textLength="91.807" font-family="Arial">:GameWindow</text><rect x="125.807" y="47.099" width="102.696" height="30.099" fill="#EAF3F2" style="stroke:#355863;stroke-width:0.5;" rx="4" ry="4"/><text x="132.807" y="67.23" fill="#000" font-size="14" textLength="88.696" font-family="Arial">:GameService</text><rect x="375.051" y="47.099" width="145.489" height="30.099" fill="#EAF3F2" style="stroke:#355863;stroke-width:0.5;" rx="4" ry="4"/><text x="382.051" y="67.23" fill="#000" font-size="14" textLength="131.489" font-family="Arial">:FileGameRepository</text><rect x="530.54" y="47.099" width="77.807" height="30.099" fill="#EAF3F2" style="stroke:#355863;stroke-width:0.5;" rx="4" ry="4"/><text x="537.54" y="67.23" fill="#000" font-size="14" textLength="63.807" font-family="Arial">GameRun</text><rect x="10" y="319.888" width="105.807" height="30.099" fill="#EAF3F2" style="stroke:#355863;stroke-width:0.5;" rx="4" ry="4"/><text x="17" y="340.02" fill="#000" font-size="14" textLength="91.807" font-family="Arial">:GameWindow</text><rect x="125.807" y="319.888" width="102.696" height="30.099" fill="#EAF3F2" style="stroke:#355863;stroke-width:0.5;" rx="4" ry="4"/><text x="132.807" y="340.02" fill="#000" font-size="14" textLength="88.696" font-family="Arial">:GameService</text><rect x="375.051" y="319.888" width="145.489" height="30.099" fill="#EAF3F2" style="stroke:#355863;stroke-width:0.5;" rx="4" ry="4"/><text x="382.051" y="340.02" fill="#000" font-size="14" textLength="131.489" font-family="Arial">:FileGameRepository</text><rect x="530.54" y="319.888" width="77.807" height="30.099" fill="#EAF3F2" style="stroke:#355863;stroke-width:0.5;" rx="4" ry="4"/><text x="537.54" y="340.02" fill="#000" font-size="14" textLength="63.807" font-family="Arial">GameRun</text><polygon points="435.795,104.296,445.795,108.296,435.795,112.296,439.795,108.296" fill="#355863" style="stroke:#355863;stroke-width:1;stroke-linejoin:miter;stroke-miterlimit:10;"/><line x1="177.155" y1="108.296" x2="441.795" y2="108.296" style="stroke:#355863;stroke-width:1;"/><text x="184.155" y="103.329" fill="#000" font-size="14" textLength="105.834" font-family="Arial">loadCheckpoint()</text><polygon points="188.155,134.395,178.155,138.395,188.155,142.395,184.155,138.395" fill="#355863" style="stroke:#355863;stroke-width:1;stroke-linejoin:miter;stroke-miterlimit:10;"/><line x1="182.155" y1="138.395" x2="446.795" y2="138.395" style="stroke:#355863;stroke-width:1;stroke-dasharray:2,2;"/><text x="194.155" y="133.428" fill="#000" font-size="14" textLength="246.641" font-family="Arial">RunCheckpoint (Format 3, ggf. migriert)</text><polygon points="165.155,164.493,175.155,168.493,165.155,172.493,169.155,168.493" fill="#355863" style="stroke:#355863;stroke-width:1;stroke-linejoin:miter;stroke-miterlimit:10;"/><line x1="62.903" y1="168.493" x2="171.155" y2="168.493" style="stroke:#355863;stroke-width:1;"/><text x="69.903" y="163.526" fill="#000" font-size="14" textLength="56.007" font-family="Arial">resume()</text><polygon points="557.443,194.592,567.443,198.592,557.443,202.592,561.443,198.592" fill="#355863" style="stroke:#355863;stroke-width:1;stroke-linejoin:miter;stroke-miterlimit:10;"/><line x1="177.155" y1="198.592" x2="563.443" y2="198.592" style="stroke:#355863;stroke-width:1;"/><text x="184.155" y="193.625" fill="#000" font-size="14" textLength="266.916" font-family="Arial">restore(checkpoint, itemPool, weaponPool)</text><line x1="569.443" y1="228.69" x2="611.443" y2="228.69" style="stroke:#355863;stroke-width:1;"/><line x1="611.443" y1="228.69" x2="611.443" y2="241.69" style="stroke:#355863;stroke-width:1;"/><line x1="570.443" y1="241.69" x2="611.443" y2="241.69" style="stroke:#355863;stroke-width:1;"/><polygon points="580.443,237.69,570.443,241.69,580.443,245.69,576.443,241.69" fill="#355863" style="stroke:#355863;stroke-width:1;stroke-linejoin:miter;stroke-miterlimit:10;"/><text x="576.443" y="223.724" fill="#000" font-size="14" textLength="285.599" font-family="Arial">Werte prüfen, Route nachbauen, enterRoom()</text><polygon points="188.155,267.789,178.155,271.789,188.155,275.789,184.155,271.789" fill="#355863" style="stroke:#355863;stroke-width:1;stroke-linejoin:miter;stroke-miterlimit:10;"/><line x1="182.155" y1="271.789" x2="568.443" y2="271.789" style="stroke:#355863;stroke-width:1;stroke-dasharray:2,2;"/><text x="194.155" y="266.822" fill="#000" font-size="14" textLength="20.234" font-family="Arial">run</text><polygon points="73.903,297.888,63.903,301.888,73.903,305.888,69.903,301.888" fill="#355863" style="stroke:#355863;stroke-width:1;stroke-linejoin:miter;stroke-miterlimit:10;"/><line x1="67.903" y1="301.888" x2="176.155" y2="301.888" style="stroke:#355863;stroke-width:1;stroke-dasharray:2,2;"/><text x="79.903" y="296.921" fill="#000" font-size="14" textLength="81.703" font-family="Arial">Optional(run)</text><?plantuml-src XPBFRjim3CRlVWgYkpX0CgnDapWv373IQfTXAsmCFYisxGYHH4-I5pJFjjjUR8hxPqhgRGPicFn-_4WHidkXMswuWYqlzusXJbSRacJW7UkVoBuI5TQyauwHTb-uGaYDu79OpyKHuVes4EsELtGGke6QIuk1qlSioMWqa0Jvr1WwFCyodSsI-JGGIycjNL-EV9-oARjvWv6fqFpDoN-TA4NBjVk_NmZ_qzNYzmvrYPz5xL-DP_GYNIwMcu3Mv70ziF-Rk_II2dtkaZITtvwDL-vvCs0rOmbR382Xs_m-MI-lmpCuFZ3McvqyOGFRs8aA0LNh7a6XsgAnaHDE8kJzSeuhO6ISHNT43V6tpUJ3R1G56uQhrIT_pmgX_Ssv0cwX691pD3z4YRsUN-XCI3mn6RPaXIFps6Fi7Ek9JlTI5kKm-GWCLY29LviTblkMX7RnA68myLBk9K__KI3snr3SmNGCJLE_1oKQ8z2uKLJ0Su51sodq7hrxzfJnys1SllgCGJXK3qHo30VaBUdJ_oZANaeAxudGcby_QzHZoAZpeURbRikxKmArGvCHgRWlUcdTwLDN7nK--jewGPhBsAT7qMy0?></g></svg>