<svg xmlns="http://www.w3.org/2000/svg" xmlns:xlink="http://www.w3.org/1999/xlink" version="1.1" data-diagram-type="STATE" style="width:929px;height:614px;background:#FFFFFF;" width="929px" height="614px" viewBox="0 0 929 614" zoomAndPan="magnify" preserveAspectRatio="none" contentStyleType="text/css"><?plantuml 1.2026.8?><defs/><g font-family="sans-serif" lengthAdjust="spacing"><g class="start_entity" data-qualified-name=".start." id="ent0001" data-source-line="17"><ellipse cx="205.18" cy="45.49" rx="10" ry="10" fill="#222" style="stroke:#222;stroke-width:1;"/></g><g class="entity" data-qualified-name="APPROACH" id="ent0002" data-source-line="17"><rect x="153.09" y="163.99" width="104.185" height="50" fill="#F1F1F1" style="stroke:#181818;stroke-width:0.5;" rx="4" ry="4"/><line x1="153.09" y1="191.239" x2="257.275" y2="191.239" style="stroke:#181818;stroke-width:0.5;"/><text x="163.09" y="183.06" fill="#000" font-size="15" textLength="84.185" font-family="Arial">APPROACH</text></g><g class="entity" data-qualified-name="WINDUP" id="ent0004" data-source-line="18"><rect x="324.76" y="292.99" width="80.828" height="50" fill="#F1F1F1" style="stroke:#181818;stroke-width:0.5;" rx="4" ry="4"/><line x1="324.76" y1="320.239" x2="405.588" y2="320.239" style="stroke:#181818;stroke-width:0.5;"/><text x="334.76" y="312.06" fill="#000" font-size="15" textLength="60.828" font-family="Arial">WINDUP</text></g><g class="entity" data-qualified-name="STRIKE" id="ent0006" data-source-line="19"><rect x="525.09" y="421.99" width="74.177" height="50" fill="#F1F1F1" style="stroke:#181818;stroke-width:0.5;" rx="4" ry="4"/><line x1="525.09" y1="449.239" x2="599.267" y2="449.239" style="stroke:#181818;stroke-width:0.5;"/><text x="535.09" y="441.06" fill="#000" font-size="15" textLength="54.177" font-family="Arial">STRIKE</text></g><g class="entity" data-qualified-name="RECOVER" id="ent0008" data-source-line="20"><rect x="521.09" y="20.49" width="94.18" height="50" fill="#F1F1F1" style="stroke:#181818;stroke-width:0.5;" rx="4" ry="4"/><line x1="521.09" y1="47.739" x2="615.27" y2="47.739" style="stroke:#181818;stroke-width:0.5;"/><text x="531.09" y="39.56" fill="#000" font-size="15" textLength="74.18" font-family="Arial">RECOVER</text></g><g class="entity" data-qualified-name="STUNNED" id="ent0011" data-source-line="22"><rect x="318.93" y="550.99" width="92.502" height="50" fill="#F1F1F1" style="stroke:#181818;stroke-width:0.5;" rx="4" ry="4"/><line x1="318.93" y1="578.239" x2="411.432" y2="578.239" style="stroke:#181818;stroke-width:0.5;"/><text x="328.93" y="570.06" fill="#000" font-size="15" textLength="72.502" font-family="Arial">STUNNED</text></g><g class="entity" data-qualified-name="GMN17" id="ent0018" data-source-line="28"><path d="M649.95,10 L649.95,41.49 L615.41,45.49 L649.95,49.49 L649.95,80.994 A4,4 0 0 0 653.95,84.994 L910.4,84.994 A4,4 0 0 0 914.4,80.994 L914.4,16 L904.4,6 L653.95,6 A4,4 0 0 0 649.95,10" style="stroke:#D8AA64;stroke-width:0.5;" fill="#FFF2DA"/><path d="M904.4,6 L904.4,14 A2,2 0 0 0 906.4,16 L914.4,16 L904.4,6" style="stroke:#D8AA64;stroke-width:0.5;" fill="#FFF2DA"/><text x="655.95" y="25.07" fill="#000" font-size="15" textLength="243.45" font-family="Arial">Boss ist hier vollständig verwundbar.</text><text x="655.95" y="42.318" fill="#000" font-size="15" textLength="198.472" font-family="Arial">Sonst 50 / 38 / 22% Schaden,</text><text x="655.95" y="59.567" fill="#000" font-size="15" textLength="152.578" font-family="Arial">je nach Sektorwächter.</text><text x="655.95" y="76.815" fill="#000" font-size="15" textLength="231.372" font-family="Arial">Bei &lt;50% Integrität kürzere Zeiten.</text></g><!--link *start* to APPROACH--><g class="link" data-entity-1="ent0001" data-entity-2="ent0002" id="lnk3" data-source-line="17" data-link-type="dependency"><path d="M205.18,55.78 C205.18,77.42 205.18,126.79 205.18,158.67" style="stroke:#355863;stroke-width:1;" fill="none" id="*start*-to-APPROACH"/><polygon points="205.18,163.67,209.18,154.67,205.18,158.67,201.18,154.67,205.18,163.67" fill="#355863" style="stroke:#355863;stroke-width:1;stroke-linejoin:miter;stroke-miterlimit:10;"/></g><!--link APPROACH to WINDUP--><g class="link" data-entity-1="ent0002" data-entity-2="ent0004" id="lnk5" data-source-line="18" data-link-type="dependency"><path d="M236.03,214.48 C264.36,236.97 302.204,267.001 330.504,289.471" style="stroke:#355863;stroke-width:1;" fill="none" id="APPROACH-to-WINDUP"/><polygon points="334.42,292.58,329.859,283.851,330.504,289.471,324.884,290.116,334.42,292.58" fill="#355863" style="stroke:#355863;stroke-width:1;stroke-linejoin:miter;stroke-miterlimit:10;"/><text x="295.76" y="259.06" fill="#000" font-size="15" textLength="186.753" font-family="Arial">in Reichweite / Angriff bereit</text></g><!--link WINDUP to STRIKE--><g class="link" data-entity-1="ent0004" data-entity-2="ent0006" id="lnk7" data-source-line="19" data-link-type="dependency"><path d="M378.52,343.18 C388.27,358.94 402.8,378.93 420.18,391.99 C421.3,392.83 478.501,414.466 520.201,430.186" style="stroke:#355863;stroke-width:1;" fill="none" id="WINDUP-to-STRIKE"/><polygon points="524.88,431.95,517.87,425.032,520.201,430.186,515.048,432.518,524.88,431.95" fill="#355863" style="stroke:#355863;stroke-width:1;stroke-linejoin:miter;stroke-miterlimit:10;"/><text x="421.18" y="388.06" fill="#000" font-size="15" textLength="120.901" font-family="Arial">Vorwarnzeit endet</text></g><!--link STRIKE to RECOVER--><g class="link" data-entity-1="ent0006" data-entity-2="ent0008" id="lnk9" data-source-line="20" data-link-type="dependency"><path d="M562.54,421.74 C563.1,383.81 564.21,308.17 565.18,243.99 C566.12,181.59 567.164,113.089 567.734,75.819" style="stroke:#355863;stroke-width:1;" fill="none" id="STRIKE-to-RECOVER"/><polygon points="567.81,70.82,563.673,79.758,567.734,75.819,571.672,79.88,567.81,70.82" fill="#355863" style="stroke:#355863;stroke-width:1;stroke-linejoin:miter;stroke-miterlimit:10;"/><text x="566.18" y="259.06" fill="#000" font-size="15" textLength="115.898" font-family="Arial">Angriffszeit endet</text></g><!--link RECOVER to APPROACH--><g class="link" data-entity-1="ent0008" data-entity-2="ent0002" id="lnk10" data-source-line="21" data-link-type="dependency"><path d="M520.72,64.99 C452.79,91.47 332.899,138.204 262.299,165.724" style="stroke:#355863;stroke-width:1;" fill="none" id="RECOVER-to-APPROACH"/><polygon points="257.64,167.54,267.478,167.998,262.299,165.724,264.573,160.544,257.64,167.54" fill="#355863" style="stroke:#355863;stroke-width:1;stroke-linejoin:miter;stroke-miterlimit:10;"/><text x="387.68" y="130.06" fill="#000" font-size="15" textLength="101.748" font-family="Arial">Erholung endet</text></g><!--link APPROACH to STUNNED--><g class="link" data-entity-1="ent0002" data-entity-2="ent0011" id="lnk12" data-source-line="22" data-link-type="dependency"><path d="M193.47,214.37 C176.46,253.44 149.58,331.79 175.18,391.99 C205.47,463.22 274.397,517.396 320.587,547.876" style="stroke:#355863;stroke-width:1;" fill="none" id="APPROACH-to-STUNNED"/><polygon points="324.76,550.63,319.451,542.334,320.587,547.876,315.045,549.012,324.76,550.63" fill="#355863" style="stroke:#355863;stroke-width:1;stroke-linejoin:miter;stroke-miterlimit:10;"/><text x="176.18" y="388.06" fill="#000" font-size="15" textLength="180.044" font-family="Arial">Treffer / Impuls (kein Boss)</text></g><!--link STUNNED to APPROACH--><g class="link" data-entity-1="ent0011" data-entity-2="ent0002" id="lnk16" data-source-line="26" data-link-type="dependency"><path d="M318.6,564.51 C244.67,545.04 102.94,495.52 45.18,391.99 C6,321.76 96.44,253.155 156.34,216.975" style="stroke:#355863;stroke-width:1;" fill="none" id="STUNNED-to-APPROACH"/><polygon points="160.62,214.39,150.848,215.619,156.34,216.975,154.984,222.467,160.62,214.39" fill="#355863" style="stroke:#355863;stroke-width:1;stroke-linejoin:miter;stroke-miterlimit:10;"/><text x="46.18" y="388.06" fill="#000" font-size="15" textLength="114.272" font-family="Arial">Betäubung endet</text></g><!--link RECOVER to STUNNED--><g class="link" data-entity-1="ent0008" data-entity-2="ent0011" id="lnk13" data-source-line="23" data-link-type="dependency"><path d="M601.36,70.94 C642.76,102.73 708.18,157.75 708.18,187.99 C708.18,187.99 708.18,187.99 708.18,447.99 C708.18,510.46 510.51,551.087 416.72,566.937" style="stroke:#355863;stroke-width:1;" fill="none" id="RECOVER-to-STUNNED"/><polygon points="411.79,567.77,421.331,570.214,416.72,566.937,419.998,562.326,411.79,567.77" fill="#355863" style="stroke:#355863;stroke-width:1;stroke-linejoin:miter;stroke-miterlimit:10;"/><text x="709.18" y="323.56" fill="#000" font-size="15" textLength="180.044" font-family="Arial">Treffer / Impuls (kein Boss)</text></g><!--link WINDUP to STUNNED--><g class="link" data-entity-1="ent0004" data-entity-2="ent0011" id="lnk14" data-source-line="24" data-link-type="dependency"><path d="M365.18,343.07 C365.18,391.87 365.18,496.89 365.18,545.78" style="stroke:#355863;stroke-width:1;" fill="none" id="WINDUP-to-STUNNED"/><polygon points="365.18,550.78,369.18,541.78,365.18,545.78,361.18,541.78,365.18,550.78" fill="#355863" style="stroke:#355863;stroke-width:1;stroke-linejoin:miter;stroke-miterlimit:10;"/><text x="366.18" y="452.56" fill="#000" font-size="15" textLength="123.369" font-family="Arial">Impuls (kein Boss)</text></g><!--link STRIKE to STUNNED--><g class="link" data-entity-1="ent0006" data-entity-2="ent0011" id="lnk15" data-source-line="25" data-link-type="dependency"><path d="M524.66,472.18 C489.72,494.7 442.102,525.401 407.092,547.971" style="stroke:#355863;stroke-width:1;" fill="none" id="STRIKE-to-STUNNED"/><polygon points="402.89,550.68,412.622,549.165,407.092,547.971,408.287,542.442,402.89,550.68" fill="#355863" style="stroke:#355863;stroke-width:1;stroke-linejoin:miter;stroke-miterlimit:10;"/><text x="476.47" y="517.06" fill="#000" font-size="15" textLength="123.369" font-family="Arial">Impuls (kein Boss)</text></g><?plantuml-src ZPFVZj905CRl-nGdCPkeSV-1XMACIGjj96jOGjarqNWnjAVjs7O6PwPBv7dsCVQE5zi32peWkZPfqyptEr-_CtEgIoxcJB4QPYmfSoKRaVPb9HMyY3QNetyHAMQigKmaXHcn6i5Nd5N7zPWl4IvTIzG5I-M2YnmoLccqbCqt4wa4Al2iTLyfkTXcQRkkrsbROb8nhOF3oA4VjQFM7vXKAQg_ET7Jy8JFcJ3F-zdmFrqr_cXG9FY9PtGBtAExVg_Rwrkqa0Q38_lV6lY7bEqpy7o_ytOlNbAo_8YL6tbHzmXektL2B-XTEWLF4R2UcvzGOpr3fPslhx_1wUa7yCVZoRNV_-ZiNZQhduUZmSqOtW4NC46U50la1k4SV94hdcL07hJYRBbrIJoT3Az2AhcLQi6KM98EA58qpbPQKvEmVtqRJWZREccBsubsBY93LSYgeIbxelQ2njERqIWS43LLc6KqRkSmhETDfU5bYPG-a5g_sdF-pvAzrdOLHpYhkMUu9_6WkG3DwhwP_MvlFH6WU5uOaDbklvor1t1jeE0K-4vMbQOwaV8Sxb0jQ2ncJ9qviHJ4k1VKKjkZHwjr0d52locADyvt1C6I0c8i3PtHwZuf359HW1pUknSdC1G6wL38s42vUb1BEcJuiZvvSUPGkisqEey0?></g></svg>